<mxfile host="65bd71144e" scale="5" border="0">
    <diagram id="rmqamuMQVthU81yHBkMc" name="Page-1">
        <mxGraphModel dx="1608" dy="834" grid="1" gridSize="10" guides="1" tooltips="1" connect="1" arrows="1" fold="1" page="1" pageScale="1" pageWidth="850" pageHeight="1100" math="0" shadow="0">
            <root>
                <mxCell id="0"/>
                <mxCell id="1" parent="0"/>
                <mxCell id="2" value="游戏进程" style="rounded=1;whiteSpace=wrap;html=1;fillColor=#dae8fc;strokeColor=#6c8ebf;" parent="1" vertex="1">
                    <mxGeometry x="223.37" y="480" width="70" height="40" as="geometry"/>
                </mxCell>
                <mxCell id="3" value="玩家A" style="rounded=1;whiteSpace=wrap;html=1;fillColor=#d5e8d4;strokeColor=#82b366;" parent="1" vertex="1">
                    <mxGeometry x="310" y="480" width="80" height="40" as="geometry"/>
                </mxCell>
                <mxCell id="4" value="玩家B" style="rounded=1;whiteSpace=wrap;html=1;fillColor=#d5e8d4;strokeColor=#82b366;" parent="1" vertex="1">
                    <mxGeometry x="410" y="480" width="80" height="40" as="geometry"/>
                </mxCell>
                <mxCell id="8" value="X" style="curved=1;endArrow=classic;html=1;exitX=0.5;exitY=1;exitDx=0;exitDy=0;entryX=0.75;entryY=1;entryDx=0;entryDy=0;dashed=1;strokeWidth=2;labelBackgroundColor=#FFFFFF;fontSize=20;labelBorderColor=none;fillColor=#f5f5f5;strokeColor=#666666;fontColor=#FF3333;startArrow=classic;startFill=1;" parent="1" source="3" target="2" edge="1">
                    <mxGeometry width="50" height="50" relative="1" as="geometry">
                        <mxPoint x="400" y="350" as="sourcePoint"/>
                        <mxPoint x="450" y="300" as="targetPoint"/>
                        <Array as="points">
                            <mxPoint x="310" y="550"/>
                        </Array>
                    </mxGeometry>
                </mxCell>
                <mxCell id="9" value="&lt;font style=&quot;font-size: 20px;&quot;&gt;X&lt;/font&gt;" style="curved=1;endArrow=classic;html=1;exitX=0.5;exitY=1;exitDx=0;exitDy=0;entryX=0.75;entryY=1;entryDx=0;entryDy=0;dashed=1;strokeWidth=2;fillColor=#f5f5f5;strokeColor=#666666;fontColor=#FF3333;startArrow=classic;startFill=1;" parent="1" source="4" target="2" edge="1">
                    <mxGeometry width="50" height="50" relative="1" as="geometry">
                        <mxPoint x="400" y="350" as="sourcePoint"/>
                        <mxPoint x="450" y="300" as="targetPoint"/>
                        <Array as="points">
                            <mxPoint x="420" y="560"/>
                            <mxPoint x="290" y="570"/>
                        </Array>
                    </mxGeometry>
                </mxCell>
                <mxCell id="12" value="" style="ellipse;shape=cloud;whiteSpace=wrap;html=1;fontSize=20;fontColor=#FF3333;" parent="1" vertex="1">
                    <mxGeometry x="186.63" y="333" width="203.37" height="110" as="geometry"/>
                </mxCell>
                <mxCell id="14" value="互联网" style="text;html=1;strokeColor=none;fillColor=none;align=center;verticalAlign=middle;whiteSpace=wrap;rounded=0;fontSize=13;fontColor=#000000;" parent="1" vertex="1">
                    <mxGeometry x="205.24" y="350" width="130" height="30" as="geometry"/>
                </mxCell>
                <mxCell id="15" value="frps" style="rounded=1;whiteSpace=wrap;html=1;fontSize=13;fillColor=#fff2cc;strokeColor=#d6b656;" parent="1" vertex="1">
                    <mxGeometry x="256.74" y="382" width="77.5" height="32.5" as="geometry"/>
                </mxCell>
                <mxCell id="16" style="html=1;exitX=1;exitY=0;exitDx=0;exitDy=0;labelBackgroundColor=#FFFFFF;labelBorderColor=none;strokeWidth=2;fontSize=13;fontColor=#000000;startArrow=classic;startFill=1;endArrow=classic;endFill=1;entryX=0.25;entryY=1;entryDx=0;entryDy=0;" parent="1" source="20" target="15" edge="1">
                    <mxGeometry relative="1" as="geometry">
                        <mxPoint x="310" y="420" as="targetPoint"/>
                    </mxGeometry>
                </mxCell>
                <mxCell id="17" style="html=1;exitX=0.5;exitY=0;exitDx=0;exitDy=0;entryX=0.5;entryY=1;entryDx=0;entryDy=0;labelBackgroundColor=#FFFFFF;labelBorderColor=none;strokeWidth=2;fontSize=13;fontColor=#000000;startArrow=classic;startFill=1;endArrow=classic;endFill=1;" parent="1" source="3" target="15" edge="1">
                    <mxGeometry relative="1" as="geometry">
                        <mxPoint x="210" y="490" as="sourcePoint"/>
                        <mxPoint x="303.3700000000001" y="408.25" as="targetPoint"/>
                    </mxGeometry>
                </mxCell>
                <mxCell id="18" style="html=1;exitX=0.5;exitY=0;exitDx=0;exitDy=0;entryX=0.75;entryY=1;entryDx=0;entryDy=0;labelBackgroundColor=#FFFFFF;labelBorderColor=none;strokeWidth=2;fontSize=13;fontColor=#000000;startArrow=classic;startFill=1;endArrow=classic;endFill=1;" parent="1" source="4" target="15" edge="1">
                    <mxGeometry relative="1" as="geometry">
                        <mxPoint x="220" y="500" as="sourcePoint"/>
                        <mxPoint x="313.3700000000001" y="418.25" as="targetPoint"/>
                    </mxGeometry>
                </mxCell>
                <mxCell id="23" style="edgeStyle=none;html=1;exitX=1;exitY=0.5;exitDx=0;exitDy=0;entryX=0;entryY=0.5;entryDx=0;entryDy=0;labelBackgroundColor=#FFFFFF;labelBorderColor=none;strokeWidth=2;fontSize=13;fontColor=#000000;startArrow=classic;startFill=1;endArrow=classic;endFill=1;" parent="1" source="20" target="2" edge="1">
                    <mxGeometry relative="1" as="geometry"/>
                </mxCell>
                <mxCell id="20" value="frpc" style="rounded=1;whiteSpace=wrap;html=1;fontSize=13;fillColor=#fff2cc;strokeColor=#d6b656;" parent="1" vertex="1">
                    <mxGeometry x="133.37" y="480" width="60" height="40" as="geometry"/>
                </mxCell>
                <mxCell id="26" value="无法直接通信" style="text;html=1;strokeColor=none;fillColor=none;align=center;verticalAlign=middle;whiteSpace=wrap;rounded=0;fontSize=13;fontColor=#FF3333;labelBackgroundColor=none;" parent="1" vertex="1">
                    <mxGeometry x="333.24" y="525" width="84.76" height="30" as="geometry"/>
                </mxCell>
                <mxCell id="27" value="实现间接通信" style="text;html=1;strokeColor=none;fillColor=none;align=center;verticalAlign=middle;whiteSpace=wrap;rounded=0;labelBackgroundColor=none;fontSize=12;fontColor=#000000;rotation=324;" parent="1" vertex="1">
                    <mxGeometry x="141" y="435" width="147.26" height="30" as="geometry"/>
                </mxCell>
            </root>
        </mxGraphModel>
    </diagram>
</mxfile>